<?xml version="1.0" standalone="no"?><!DOCTYPE svg PUBLIC "-//W3C//DTD SVG 1.1//EN" "http://www.w3.org/Graphics/SVG/1.1/DTD/svg11.dtd"><svg t="1700793472507" class="icon" viewBox="0 0 1024 1024" version="1.1" xmlns="http://www.w3.org/2000/svg" p-id="1899" xmlns:xlink="http://www.w3.org/1999/xlink" width="200" height="200"><path d="M925.0816 613.7856c-14.7968-27.392-47.4112-39.936-76.7488-29.5424l-185.9584 65.8432c-10.3424 23.1936-25.856 45.824-49.0496 60.8256-13.568 8.7552-33.024 16.7936-58.7776 16.7936-16.8448 0-36.352-3.4304-58.7264-12.3392l-1.9456-0.8704c-60.6208-29.0816-111.36-55.552-111.872-55.808a31.11936 31.11936 0 0 1-13.1584-42.0352 31.11936 31.11936 0 0 1 42.0352-13.1584c0.512 0.256 49.7152 26.0096 108.9024 54.3744 37.888 14.7968 54.272 4.1984 59.6992 0.7168 15.6672-10.1376 25.856-30.5664 32.1536-50.7904-6.2464-7.8848-14.848-16.0256-26.6752-24.064-29.3376-19.968-105.216-63.488-171.4176-100.7104a204.0576 204.0576 0 0 0-219.5456 12.3904l-83.7632 60.4672a26.7776 26.7776 0 0 0-11.1104 21.7088v198.0928c0 16.6912 15.104 29.2864 31.5392 26.3168l74.752-13.5168c21.5552-3.8912 43.776-2.3552 64.6144 4.5056l209.408 69.0176a243.12832 243.12832 0 0 0 211.3024-28.7744l212.736-136.0896a63.25248 63.25248 0 0 0 21.6064-83.3536z" fill="#FF5A3E" p-id="1900"></path><path d="M838.0416 193.536c-40.0384-41.9328-134.7584-96.3584-235.4688 10.9568 0 0-94.8736-117.1968-214.4768-32.1024-43.4176 29.5936-91.9552 124.672-26.624 233.6768 94.6176 30.0032 237.056 128.7168 283.4944 161.9456 278.528-154.8288 240.4352-324.864 193.0752-374.4768z" fill="#FF5A3E" p-id="1901"></path></svg>