<?xml version="1.0" standalone="no"?><!DOCTYPE svg PUBLIC "-//W3C//DTD SVG 1.1//EN" "http://www.w3.org/Graphics/SVG/1.1/DTD/svg11.dtd"><svg t="1700747631837" class="icon" viewBox="0 0 1024 1024" version="1.1" xmlns="http://www.w3.org/2000/svg" p-id="1923" xmlns:xlink="http://www.w3.org/1999/xlink" width="200" height="200"><path d="M931.1232 465.3056l-94.6688-87.6544V216.064c0-28.5696-22.3744-51.712-49.9712-51.712s-49.9712 23.1424-49.9712 51.712v69.0176l-175.9744-162.9184c-27.4944-23.296-78.6944-17.5104-102.7584 5.7856L98.9184 465.0496c-20.1216 18.8928-21.0944 50.5344-2.2016 70.656 18.8928 20.1216 50.5344 21.0944 70.656 2.2016l299.8272-281.6512c25.4464-23.9104 65.024-24.0128 90.624-0.3072l305.408 282.7776a49.83296 49.83296 0 0 0 33.9456 13.312c13.4144 0 26.8288-5.376 36.6592-16.0256 18.7392-20.3264 17.5104-51.968-2.7136-70.7072z" fill="#515151" p-id="1924"></path><path d="M546.816 301.4144c-18.688-16.896-48.128-16.896-66.7648 0.0512L189.4912 579.072v289.536c0 25.5488 21.9136 46.2336 48.896 46.2336h549.9392c27.0336 0 48.896-20.6848 48.896-46.2336v-290.816L546.816 301.4144z" fill="#515151" p-id="1925"></path></svg>