<svg fill="none" xmlns="http://www.w3.org/2000/svg" viewBox="0 0 24 24" class="design-iconfont">
  <path fill-rule="evenodd" clip-rule="evenodd" d="M15.5 3C17.4407 3 19.0585 4.38201 19.4231 6.21554L18 7.624V7C18 5.61929 16.8807 4.5 15.5 4.5H6C4.67452 4.5 3.58996 5.53154 3.50532 6.83562L3.5 7V16.5C3.5 17.8255 4.53154 18.91 5.83562 18.9947L6 19H15.5C16.8255 19 17.91 17.9685 17.9947 16.6644L18 16.5V12.543L19.5 11.059V16.5C19.5 18.7091 17.7091 20.5 15.5 20.5H6C3.79086 20.5 2 18.7091 2 16.5V7C2 4.79086 3.79086 3 6 3H15.5ZM19.5 7.546V9.651L18 11.136V9.033L19.5 7.546Z" fill="#000"/>
  <path fill-rule="evenodd" clip-rule="evenodd" d="M5.75 7H10C10.4142 7 10.75 7.33579 10.75 7.75C10.75 8.16421 10.4142 8.5 10 8.5H5.75C5.33579 8.5 5 8.16421 5 7.75C5 7.33579 5.33579 7 5.75 7Z" fill="#000"/>
  <path fill-rule="evenodd" clip-rule="evenodd" d="M5.75 14.5H15C15.4142 14.5 15.75 14.8358 15.75 15.25C15.75 15.6642 15.4142 16 15 16H5.75C5.33579 16 5 15.6642 5 15.25C5 14.8358 5.33579 14.5 5.75 14.5Z" fill="#000"/>
  <path fill-rule="evenodd" clip-rule="evenodd" d="M5.75 10.75H10.25C10.6642 10.75 11 11.0858 11 11.5C11 11.9142 10.6642 12.25 10.25 12.25H5.75C5.33579 12.25 5 11.9142 5 11.5C5 11.0858 5.33579 10.75 5.75 10.75Z" fill="#000"/>
  <path fill-rule="evenodd" clip-rule="evenodd" d="M21.1124 6.97961C21.3949 7.26204 21.405 7.71369 21.1427 8.00821L21.1124 8.04027L16.5939 12.5588C15.9247 13.228 14.8484 13.2419 14.1623 12.6006L14.119 12.5588L11.5273 9.96705C11.2344 9.67415 11.2344 9.19928 11.5273 8.90639C11.8097 8.62395 12.2614 8.61387 12.5559 8.87613L12.5879 8.90639L15.1797 11.4981C15.2704 11.5888 15.4133 11.5953 15.5114 11.5176L15.5332 11.4981L20.0518 6.97961C20.3447 6.68672 20.8195 6.68672 21.1124 6.97961Z" fill="#000"/>
</svg>
