<svg fill="none" xmlns="http://www.w3.org/2000/svg" viewBox="0 0 28 28" class="design-iconfont">
  <g clip-path="url(#0xsu4yv1o__clip0_40_6179)">
    <path fill-rule="evenodd" clip-rule="evenodd" d="M14.9087 5.78738L20.5512 9.72265C20.9971 10.0329 21.3628 10.4546 21.6156 10.9501C21.8685 11.4455 22.0005 11.9992 22 12.5616V20.7708C22 21.7245 21.2629 22.5 20.3564 22.5H7.64363C6.73709 22.5 6 21.7245 6 20.7708V12.5616C6 11.4162 6.54223 10.3555 7.44877 9.72265L13.0913 5.78738C13.3609 5.59994 13.6769 5.5 14 5.5C14.3231 5.5 14.6391 5.59994 14.9087 5.78738ZM8.59347 11.3627L8.5936 11.3626L14 7.59203L19.4071 11.3631L19.4089 11.3643C19.578 11.482 19.7271 11.6494 19.8342 11.8592C19.9414 12.0693 20.0002 12.3104 20 12.5597V12.5616V20.5H8V12.5616C8 12.0437 8.24393 11.6067 8.59347 11.3627ZM14 14C13.7239 14 13.5 14.2239 13.5 14.5V17.5C13.5 17.7761 13.7239 18 14 18C14.2761 18 14.5 17.7761 14.5 17.5V14.5C14.5 14.2239 14.2761 14 14 14Z" fill="#191919"/>
  </g>
  <defs>
    <clipPath id="0xsu4yv1o__clip0_40_6179">
      <path fill="#fff" d="M0 0H28V28H0z"/>
    </clipPath>
  </defs>
</svg>
