<svg fill="none" xmlns="http://www.w3.org/2000/svg" viewBox="0 0 90 90" class="design-iconfont">
  <rect width="90" height="90" rx="40" fill="url(#5st6qamo3__paint0_linear_38_5635)"/>
  <path d="M19.6693 46.3171V38.8791C19.6693 38.5434 19.7873 38.2528 20.0233 38.0075C20.2594 37.7621 20.5479 37.6395 20.8888 37.6395H21.2625C21.4067 37.4199 21.5313 37.1681 21.6362 36.884C21.7542 36.5999 21.8394 36.374 21.8919 36.2061C21.9443 36.0124 22.0558 35.8639 22.2263 35.7606C22.4098 35.6573 22.6 35.6379 22.7966 35.7025C22.9802 35.7541 23.1245 35.8703 23.2294 36.0511C23.3343 36.219 23.3605 36.3998 23.308 36.5935C23.2687 36.7226 23.2162 36.8776 23.1507 37.0584C23.0851 37.2391 23.0064 37.4328 22.9147 37.6395H24.1931C24.5341 37.6395 24.8225 37.7621 25.0586 38.0075C25.2946 38.2528 25.4126 38.5434 25.4126 38.8791V42.3463C25.4126 42.695 25.347 43.0307 25.2159 43.3536C25.0979 43.6635 24.9274 43.9347 24.7045 44.1671C24.4947 44.3995 24.239 44.5868 23.9374 44.7288C23.649 44.8579 23.3408 44.9225 23.013 44.9225C22.8032 44.9225 22.6262 44.8515 22.4819 44.7094C22.3508 44.5674 22.2853 44.3931 22.2853 44.1865C22.2853 43.9798 22.3508 43.812 22.4819 43.6828C22.6262 43.5408 22.8032 43.4698 23.013 43.4698C23.2753 43.4698 23.4916 43.36 23.6621 43.1405C23.8456 42.921 23.9374 42.6562 23.9374 42.3463V39.0922H21.1248V45.6198H24.7045C25.0454 45.6198 25.3339 45.7425 25.5699 45.9879C25.806 46.2332 25.924 46.5302 25.924 46.8789V51.1402C25.8978 51.6051 25.7863 52.0183 25.5896 52.3799C25.3929 52.7544 25.1438 53.0708 24.8422 53.329C24.5537 53.5873 24.2325 53.7874 23.8784 53.9295C23.5244 54.0715 23.1704 54.1426 22.8163 54.1426C22.6196 54.1426 22.4492 54.078 22.3049 53.9489C22.1607 53.8197 22.082 53.6583 22.0689 53.4646C22.0427 53.2838 22.0886 53.116 22.2066 52.961C22.3377 52.8189 22.4951 52.735 22.6786 52.7092L22.8557 52.6898H23.0523C23.3933 52.6253 23.708 52.4509 23.9964 52.1668C24.2849 51.8957 24.4423 51.5405 24.4685 51.1015V47.1113H20.4561C20.1807 47.1113 19.9775 47.0015 19.8463 46.782C19.7152 46.6529 19.6496 46.4979 19.6496 46.3171H19.6693ZM18.0565 39.5183V47.4212L18.2532 47.305C18.4367 47.1888 18.6269 47.1565 18.8236 47.2082C19.0334 47.2598 19.1907 47.376 19.2956 47.5568C19.4136 47.7376 19.4464 47.9313 19.3939 48.1379C19.3415 48.3316 19.2235 48.4801 19.0399 48.5834L16.2273 50.2298C16.0961 50.2944 15.965 50.3267 15.8339 50.3267C15.7028 50.3267 15.5782 50.3009 15.4602 50.2492C15.3422 50.1847 15.2504 50.0878 15.1848 49.9587C15.0799 49.7779 15.0537 49.5906 15.1062 49.3969C15.1586 49.2032 15.2766 49.0483 15.4602 48.9321L16.5616 48.2929V39.5183H15.8339C15.6372 39.5183 15.4602 39.4473 15.3028 39.3053C15.1586 39.1503 15.0865 38.9695 15.0865 38.7629C15.0865 38.5563 15.1586 38.382 15.3028 38.2399C15.4471 38.0979 15.6241 38.0269 15.8339 38.0269H18.5285C18.7383 38.0269 18.9153 38.0979 19.0596 38.2399C19.2038 38.382 19.2759 38.5563 19.2759 38.7629C19.2759 38.9695 19.2038 39.1503 19.0596 39.3053C18.9285 39.4473 18.7514 39.5183 18.5285 39.5183H18.0565ZM12.5689 54.2007C12.3591 54.149 12.2017 54.0328 12.0968 53.852C11.9919 53.6841 11.9723 53.5033 12.0378 53.3097L13.6507 46.6658C13.69 46.4721 13.7949 46.3236 13.9654 46.2203C14.1489 46.1041 14.3456 46.0718 14.5554 46.1234C14.7652 46.1622 14.9226 46.2719 15.0275 46.4527C15.1324 46.6206 15.1586 46.8078 15.1062 47.0145L13.4933 53.6583C13.4409 53.8391 13.3491 53.9747 13.218 54.0651C13.0868 54.1684 12.9295 54.22 12.7459 54.22C12.6672 54.22 12.6082 54.2136 12.5689 54.2007ZM18.6859 49.5713C18.6859 49.3776 18.758 49.2097 18.9022 49.0677C19.0465 48.9256 19.2235 48.8546 19.4333 48.8546H23.4064C23.6162 48.8546 23.7866 48.9256 23.9178 49.0677C24.062 49.2097 24.1341 49.3776 24.1341 49.5713C24.1341 49.7779 24.062 49.9522 23.9178 50.0943C23.7866 50.2363 23.6162 50.3073 23.4064 50.3073H19.4333C19.2235 50.3073 19.0465 50.2363 18.9022 50.0943C18.758 49.9522 18.6859 49.7779 18.6859 49.5713ZM12.1952 42.4625C12.0772 42.2947 12.0313 42.1139 12.0575 41.9202C12.0968 41.7136 12.2017 41.5522 12.3722 41.4359C12.5427 41.3068 12.7262 41.2616 12.9229 41.3004C13.1327 41.3262 13.2966 41.4295 13.4146 41.6103L14.9291 43.7216C15.0471 43.8895 15.0865 44.0767 15.0471 44.2833C15.0209 44.477 14.916 44.632 14.7324 44.7482C14.6275 44.8515 14.4833 44.9031 14.2997 44.9031C14.0506 44.9031 13.8474 44.7934 13.69 44.5739L12.1952 42.4625ZM12.3329 37.7169C12.228 37.5361 12.1952 37.3489 12.2345 37.1552C12.287 36.9486 12.405 36.7936 12.5886 36.6903C12.7721 36.5741 12.9623 36.5418 13.1589 36.5935C13.3556 36.6451 13.513 36.7549 13.631 36.9228L14.9291 39.0147C15.034 39.1955 15.0603 39.3827 15.0078 39.5764C14.9685 39.7701 14.857 39.9251 14.6734 40.0413C14.5423 40.1059 14.4112 40.1382 14.2801 40.1382C14.1621 40.1382 14.044 40.1059 13.926 40.0413C13.808 39.9767 13.7162 39.8864 13.6507 39.7701L12.3329 37.7169ZM23.013 42.6562C22.9081 42.6821 22.8294 42.695 22.777 42.695C22.6327 42.695 22.4951 42.6562 22.3639 42.5788C22.2328 42.4884 22.141 42.3722 22.0886 42.2301L21.5378 40.7386C21.4723 40.5578 21.4788 40.3835 21.5575 40.2156C21.6493 40.0349 21.787 39.9057 21.9706 39.8282C22.1541 39.7637 22.3312 39.7766 22.5016 39.867C22.6852 39.9445 22.8163 40.0736 22.895 40.2544L23.4457 41.7459C23.5113 41.9266 23.4982 42.1074 23.4064 42.2882C23.3277 42.469 23.1966 42.5917 23.013 42.6562Z" fill="#fff"/>
  <path d="M29.2064 53.0772C29.2064 52.8577 29.2785 52.6769 29.4227 52.5349C29.567 52.3928 29.7505 52.3218 29.9734 52.3218H30.6422V48.5447C30.6422 48.2089 30.7668 47.9184 31.0159 47.673C31.265 47.4277 31.5601 47.305 31.901 47.305H40.5749C40.9158 47.305 41.2109 47.4277 41.46 47.673C41.7092 47.9184 41.8337 48.2089 41.8337 48.5447V52.3218H42.5221C42.745 52.3218 42.9221 52.3928 43.0532 52.5349C43.1974 52.6769 43.2695 52.8577 43.2695 53.0772C43.2695 53.2967 43.1974 53.4711 43.0532 53.6002C42.9089 53.7422 42.7319 53.8133 42.5221 53.8133H29.9538C29.7309 53.8133 29.5473 53.7358 29.4031 53.5808C29.2719 53.4388 29.2064 53.2709 29.2064 53.0772ZM39.8472 45.2905C40.0045 45.2905 40.1488 45.2776 40.2799 45.2518C40.4241 45.2131 40.5421 45.142 40.6339 45.0387C40.7388 44.9225 40.8175 44.7546 40.87 44.5351C40.9355 44.3156 40.9683 44.0121 40.9683 43.6247V43.586H37.4082C37.2771 44.1671 37.0935 44.7224 36.8575 45.2518C36.6215 45.7812 36.3002 46.259 35.8938 46.6852C35.7626 46.853 35.5791 46.937 35.343 46.937C35.1332 46.937 34.9628 46.8724 34.8316 46.7433C34.6874 46.6012 34.6087 46.4269 34.5956 46.2203C34.5825 46.0137 34.6481 45.8329 34.7923 45.6779C35.1594 45.2905 35.4414 44.8321 35.6381 44.3027C35.8347 43.7732 35.979 43.2115 36.0708 42.6175C36.1626 42.0235 36.215 41.4295 36.2281 40.8355C36.2412 40.2415 36.2478 39.6797 36.2478 39.1503V37.7363C36.2478 37.3747 36.3724 37.0713 36.6215 36.8259C36.8706 36.5806 37.1788 36.4579 37.5459 36.4579H41.2043C41.5715 36.4579 41.8796 36.5806 42.1288 36.8259C42.3779 37.0713 42.5025 37.3747 42.5025 37.7363V43.6247C42.5025 44.2704 42.4172 44.7998 42.2468 45.2131C42.0894 45.6263 41.8796 45.9491 41.6174 46.1816C41.3682 46.414 41.0863 46.5754 40.7716 46.6658C40.4569 46.7433 40.1488 46.782 39.8472 46.782C39.6505 46.782 39.4735 46.711 39.3161 46.5689C39.1719 46.414 39.0998 46.2332 39.0998 46.0266C39.0998 45.82 39.1719 45.6457 39.3161 45.5036C39.4735 45.3616 39.6505 45.2905 39.8472 45.2905ZM33.7695 36.7097C34.1104 36.7097 34.4055 36.8324 34.6546 37.0777C34.9169 37.3231 35.0545 37.6201 35.0677 37.9687V43.9347C35.0677 44.2833 34.9365 44.5803 34.6743 44.8257C34.4251 45.071 34.1236 45.1937 33.7695 45.1937H31.1929C30.8258 45.1937 30.5176 45.071 30.2685 44.8257C30.0193 44.5803 29.8948 44.2833 29.8948 43.9347V37.9687C29.8948 37.6201 30.0193 37.3231 30.2685 37.0777C30.5176 36.8324 30.8258 36.7097 31.1929 36.7097H33.7695ZM40.3192 48.7771H38.5097V52.3218H40.3192V48.7771ZM37.0149 52.3218V48.7771H35.284V52.3218H37.0149ZM32.1173 52.3218H33.8089V48.7771H32.1173V52.3218ZM40.988 42.0945V40.6805H37.7426C37.7426 40.913 37.7361 41.1454 37.7229 41.3778C37.7098 41.6103 37.6902 41.8492 37.6639 42.0945H40.988ZM31.3896 38.2012V40.2738H33.5138V38.2012H31.3896ZM33.5138 43.7022V41.7652H31.3896V43.7022H33.5138ZM37.7623 37.9494V39.189H40.988V37.9494H37.7623Z" fill="#fff"/>
  <path d="M47.26 54.2007C47.2207 54.2007 47.1748 54.2007 47.1223 54.2007C47.083 54.2007 47.0436 54.1877 47.0043 54.1619C46.8207 54.0974 46.683 53.9747 46.5913 53.7939C46.5126 53.6131 46.506 53.4259 46.5716 53.2322C46.7814 52.6898 46.9584 52.1023 47.1026 51.4695C47.26 50.8368 47.3911 50.1395 47.496 49.3776C47.6009 48.6028 47.6796 47.7505 47.7321 46.8208C47.7845 45.8781 47.8238 44.8257 47.8501 43.6635V37.8719C47.8501 37.5361 47.9746 37.2456 48.2238 37.0003C48.4729 36.7549 48.7679 36.6322 49.1089 36.6322H54.2621C54.603 36.6322 54.898 36.7549 55.1472 37.0003C55.3963 37.2456 55.5209 37.5361 55.5209 37.8719V40.3512C55.5209 40.687 55.3963 40.9775 55.1472 41.2229C54.898 41.4682 54.603 41.5909 54.2621 41.5909H49.3056V43.7022C49.2793 44.9031 49.2334 45.9943 49.1679 46.9757C49.1154 47.9442 49.0367 48.8352 48.9318 49.6488C48.8269 50.4623 48.6893 51.2048 48.5188 51.8763C48.3615 52.5478 48.1713 53.1741 47.9484 53.7552C47.8173 54.0522 47.5878 54.2007 47.26 54.2007ZM53.3967 52.593C53.3442 52.593 53.3049 52.5865 53.2786 52.5736V53.6002C53.2786 53.781 53.2131 53.9359 53.082 54.0651C52.9508 54.2071 52.7869 54.2781 52.5902 54.2781C52.3936 54.2781 52.2231 54.2071 52.0789 54.0651C51.9477 53.9359 51.8822 53.781 51.8822 53.6002V45.5036H51.0167V51.8763C51.0167 52.07 50.9446 52.2314 50.8004 52.3605C50.6693 52.5026 50.5053 52.5736 50.3087 52.5736C50.112 52.5736 49.9415 52.5026 49.7973 52.3605C49.6661 52.2314 49.6006 52.07 49.6006 51.8763V45.3099C49.6006 44.9742 49.7186 44.6901 49.9546 44.4576C50.2038 44.2123 50.4988 44.0896 50.8397 44.0896H51.8822V42.7725C51.8822 42.5917 51.9477 42.4367 52.0789 42.3076C52.2231 42.1655 52.3936 42.0945 52.5902 42.0945C52.7738 42.0945 52.9312 42.1655 53.0623 42.3076C53.2065 42.4367 53.2786 42.5917 53.2786 42.7725V44.0896H54.4391C54.78 44.0896 55.0685 44.2123 55.3045 44.4576C55.5537 44.6901 55.6782 44.9742 55.6782 45.3099V50.4235C55.6782 50.7205 55.6127 51.0046 55.4816 51.2758C55.3635 51.5341 55.1996 51.7601 54.9898 51.9538C54.78 52.1475 54.5374 52.3024 54.2621 52.4186C53.9867 52.5349 53.6982 52.593 53.3967 52.593ZM57.2517 54.22C57.0419 54.22 56.8649 54.149 56.7207 54.007C56.5764 53.8649 56.5043 53.6906 56.5043 53.484C56.5043 53.2774 56.5764 53.103 56.7207 52.961C56.8649 52.8189 57.0419 52.7479 57.2517 52.7479C57.5009 52.7479 57.7369 52.6963 57.9598 52.593C58.1958 52.5026 58.3925 52.3734 58.5499 52.2056C58.7203 52.0506 58.8515 51.8634 58.9433 51.6438C59.0482 51.4243 59.1006 51.1919 59.1006 50.9465V36.9421C59.1006 36.7355 59.1727 36.5612 59.317 36.4192C59.4612 36.2771 59.6448 36.2061 59.8677 36.2061C60.0775 36.2061 60.2545 36.2771 60.3987 36.4192C60.543 36.5612 60.6151 36.7355 60.6151 36.9421V50.9465C60.6151 51.3985 60.5233 51.8182 60.3397 52.2056C60.1693 52.6059 59.9333 52.9545 59.6317 53.2515C59.3301 53.5485 58.976 53.781 58.5695 53.9489C58.1631 54.1296 57.7238 54.22 57.2517 54.22ZM57.1927 50.5398C56.996 50.5398 56.8256 50.4687 56.6813 50.3267C56.5371 50.1847 56.465 50.0103 56.465 49.8037V38.7823C56.465 38.5757 56.5371 38.4078 56.6813 38.2787C56.8256 38.1366 56.996 38.0656 57.1927 38.0656C57.4025 38.0656 57.573 38.1366 57.7041 38.2787C57.8484 38.4078 57.9205 38.5757 57.9205 38.7823V49.8037C57.9205 50.0103 57.8484 50.1847 57.7041 50.3267C57.573 50.4687 57.4025 50.5398 57.1927 50.5398ZM49.2859 40.1382H54.0457V38.0656H49.2859V40.1382ZM53.3967 51.2177C53.6196 51.2177 53.8163 51.1402 53.9867 50.9853C54.1703 50.8303 54.2621 50.6431 54.2621 50.4235V45.5036H53.2786V51.2371C53.3049 51.2242 53.3442 51.2177 53.3967 51.2177Z" fill="#fff"/>
  <path d="M77.2526 52.7286C77.4755 52.7286 77.6525 52.7996 77.7836 52.9416C77.9148 53.0837 77.9803 53.2515 77.9803 53.4452C77.9803 53.6519 77.9082 53.8262 77.764 53.9682C77.6197 54.1232 77.4427 54.2007 77.2329 54.2007C75.4365 54.2007 73.8958 54.1813 72.6108 54.1426C71.3257 54.1038 70.2308 54.0199 69.3261 53.8907C68.4344 53.7616 67.7001 53.5679 67.1232 53.3097C66.5593 53.0643 66.1004 52.7286 65.7463 52.3024C65.6677 52.5478 65.589 52.7867 65.5103 53.0191C65.4317 53.2515 65.3464 53.4904 65.2546 53.7358C65.1235 54.0457 64.8875 54.2007 64.5466 54.2007C64.4417 54.2007 64.3499 54.1813 64.2712 54.1426C64.0745 54.0651 63.9303 53.9295 63.8385 53.7358C63.7467 53.555 63.7467 53.3678 63.8385 53.1741C64.2056 52.2831 64.4744 51.3856 64.6449 50.4817C64.8154 49.5648 64.9006 48.5963 64.9006 47.5762C64.9006 47.3696 64.9727 47.1952 65.1169 47.0532C65.2743 46.9111 65.4513 46.8401 65.648 46.8401C65.8578 46.8401 66.0348 46.9111 66.1791 47.0532C66.3364 47.1952 66.4151 47.3696 66.4151 47.5762C66.4151 48.0152 66.402 48.4414 66.3758 48.8546C66.3626 49.2678 66.3233 49.6746 66.2577 50.0749C66.3626 50.4106 66.4807 50.7012 66.6118 50.9465C66.7429 51.1919 66.9199 51.4114 67.1428 51.6051V46.1234H64.5466C64.3368 46.1234 64.1597 46.0524 64.0155 45.9104C63.8713 45.7683 63.7991 45.594 63.7991 45.3874C63.7991 45.1808 63.8713 45.0064 64.0155 44.8644C64.1597 44.7094 64.3368 44.632 64.5466 44.632H70.2112C70.4079 44.632 70.5783 44.7094 70.7225 44.8644C70.8799 45.0064 70.9586 45.1808 70.9586 45.3874C70.9586 45.594 70.8799 45.7683 70.7225 45.9104C70.5783 46.0524 70.4079 46.1234 70.2112 46.1234H68.6573V48.3316H70.1325C70.3423 48.3316 70.5193 48.4026 70.6635 48.5447C70.8209 48.6867 70.8996 48.861 70.8996 49.0677C70.8996 49.2743 70.8209 49.4551 70.6635 49.61C70.5193 49.7521 70.3423 49.8231 70.1325 49.8231H68.6573V52.2637C69.0376 52.3541 69.49 52.4251 70.0145 52.4767C70.539 52.5413 71.1487 52.593 71.8437 52.6317C72.5386 52.6704 73.3319 52.6963 74.2236 52.7092C75.1152 52.7221 76.1249 52.7286 77.2526 52.7286ZM77.2526 36.9228C77.4755 36.9228 77.6525 37.0003 77.7836 37.1552C77.9279 37.2973 78 37.4716 78 37.6782C78 37.8848 77.9279 38.0591 77.7836 38.2012C77.6394 38.3432 77.4624 38.4142 77.2526 38.4142H74.9513L74.4203 40.235H75.9741C76.3413 40.235 76.6494 40.3577 76.8985 40.603C77.1477 40.8484 77.2723 41.1519 77.2723 41.5134V47.5956C77.2723 47.8022 77.1936 47.9829 77.0362 48.1379C76.892 48.28 76.715 48.351 76.5052 48.351C76.3085 48.351 76.1315 48.28 75.9741 48.1379C75.8299 47.9829 75.7578 47.8022 75.7578 47.5956V41.7265H72.7878V47.5956C72.7878 47.8022 72.7091 47.9829 72.5518 48.1379C72.4075 48.28 72.2305 48.351 72.0207 48.351C71.8109 48.351 71.6339 48.28 71.4896 48.1379C71.3454 47.9829 71.2733 47.8022 71.2733 47.5956V41.5134C71.2733 41.1519 71.3978 40.8484 71.647 40.603C71.8961 40.3577 72.1977 40.235 72.5518 40.235H72.8468L73.3778 38.4142H71.2929C71.0831 38.4142 70.8996 38.3432 70.7422 38.2012C70.598 38.0591 70.5259 37.8848 70.5259 37.6782C70.5259 37.4716 70.598 37.2973 70.7422 37.1552C70.8996 37.0003 71.0831 36.9228 71.2929 36.9228H77.2526ZM65.8447 43.9347C65.4907 43.9347 65.1891 43.812 64.9399 43.5666C64.6908 43.3213 64.5662 43.0178 64.5662 42.6562V38.2206C64.54 37.8848 64.6515 37.5878 64.9006 37.3295C65.1497 37.0584 65.4644 36.9228 65.8447 36.9228H68.8737C69.2277 36.9228 69.5293 37.0454 69.7785 37.2908C70.0407 37.5361 70.1718 37.8396 70.1718 38.2012V42.6562C70.1718 43.0178 70.0407 43.3213 69.7785 43.5666C69.5293 43.812 69.2277 43.9347 68.8737 43.9347H65.8447ZM75.03 43.1792V46.8982C75.03 47.079 75.0169 47.2534 74.9907 47.4212C74.9776 47.5891 74.9579 47.7634 74.9317 47.9442C75.9807 48.7836 76.8461 49.7843 77.528 50.9465C77.6329 51.1273 77.6591 51.3146 77.6066 51.5083C77.5542 51.702 77.4362 51.844 77.2526 51.9344C77.1215 51.999 76.9969 52.0312 76.8789 52.0312C76.5904 52.0312 76.374 51.915 76.2298 51.6826C75.7184 50.8174 75.0956 50.062 74.3613 49.4163C73.7974 50.3848 72.8992 51.2177 71.6667 51.915C71.5093 51.9796 71.3782 52.0119 71.2733 52.0119C70.9848 52.0119 70.7619 51.9021 70.6045 51.6826C70.4996 51.5018 70.4734 51.3146 70.5259 51.1209C70.5783 50.9142 70.6963 50.7593 70.8799 50.656C71.7847 50.1136 72.4468 49.5454 72.8665 48.9514C73.286 48.3445 73.4958 47.6537 73.4958 46.8789V43.1792C73.4958 42.9726 73.568 42.7983 73.7122 42.6562C73.8696 42.5142 74.0531 42.4432 74.2629 42.4432C74.4727 42.4432 74.6497 42.5142 74.794 42.6562C74.9382 42.7983 75.0103 42.9726 75.0103 43.1792H75.03ZM66.0807 38.4142V39.6927H68.6573V38.4142H66.0807ZM68.6377 42.4432V41.1648H66.0611V42.4432H68.6377Z" fill="#fff"/>
  <path fill-rule="evenodd" clip-rule="evenodd" d="M75.2539 35.839C76.1233 31.815 75.7119 28.2039 73.7353 25.5715C67.4108 17.4022 55.8945 18.4485 43.3338 27.1909C43.059 27.3432 42.7711 27.4982 42.4699 27.6564C40.5702 28.6543 38.6526 27.8697 37.253 26.4361C38.0833 28.2886 37.9303 30.4911 35.6835 32.5885C35.2873 32.9584 34.9057 33.3036 34.5378 33.6253C36.0134 32.7093 37.7606 32.1263 39.6682 32.2063C40.787 32.3328 41.6957 32.765 42.3902 33.3934C42.0161 32.6203 41.8067 31.7546 41.8067 30.8407C41.8067 29.476 42.7827 28.2984 44.1611 27.3892C52.5442 23.062 61.5785 21.5248 65.912 27.1124C67.6216 29.3893 67.9735 32.4475 67.1545 35.839H75.2539ZM63.517 54.9596H52.1914C39.8711 63.6138 27.8685 65.9266 23.1111 59.5906C22.3642 58.5959 21.892 57.447 21.6742 56.1828C21.1218 59.3561 21.3632 62.5097 22.7772 65.4755C28.6828 73.3405 42.6631 70.5345 57.1189 60.2864C59.4244 58.652 61.5673 56.856 63.517 54.9596Z" fill="#fff"/>
  <defs>
    <linearGradient id="5st6qamo3__paint0_linear_38_5635" x1="0" y1="0" x2="105.882" y2="26.4706" gradientUnits="userSpaceOnUse">
      <stop stop-color="#1CC6FC"/>
      <stop offset="1" stop-color="#0A59F7"/>
    </linearGradient>
  </defs>
</svg>
