<svg fill="none" xmlns="http://www.w3.org/2000/svg" viewBox="0 0 28 28" class="design-iconfont">
  <g clip-path="url(#cgdln2vu3__clip0_40_6192)">
    <path fill-rule="evenodd" clip-rule="evenodd" d="M11.2161 13.2165H10.534C10.2933 13.2165 10.0726 13.2064 9.85191 13.1963C9.63123 13.1861 9.41055 13.176 9.1698 13.176C8.28708 11.515 8.24696 9.57049 9.12968 7.90952C10.534 5.23577 13.8643 4.22299 16.5125 5.64089C19.1606 7.05878 20.1637 10.4212 18.7594 13.095C18.5635 13.095 18.3677 13.1046 18.1672 13.1145C17.9569 13.1249 17.7415 13.1355 17.5155 13.1355H16.8334C16.8535 13.1152 16.8736 13.0848 16.8936 13.0545C16.9137 13.0241 16.9337 12.9937 16.9538 12.9734C18.1976 11.515 18.1575 9.36793 16.9137 7.90952C15.5094 6.28907 13.0618 6.12702 11.4569 7.54492C9.85191 8.96282 9.69141 11.434 11.0957 13.0545C11.1359 13.095 11.176 13.1355 11.2161 13.2165ZM12.2593 11.3935C12.2593 11.6366 12.4198 11.7986 12.6605 11.7986C12.9013 11.7986 13.0618 11.6366 13.0618 11.3935V10.5833C13.0618 10.3402 12.9013 10.1782 12.6605 10.1782C12.4198 10.1782 12.2593 10.3402 12.2593 10.5833V11.3935ZM14.6266 11.3935C14.6266 11.6366 14.7871 11.7986 15.0278 11.7986C15.2686 11.7986 15.4291 11.6366 15.4291 11.3935V10.5833C15.4291 10.3402 15.2686 10.1782 15.0278 10.1782C14.7871 10.1782 14.6266 10.3402 14.6266 10.5833V11.3935ZM21.0865 14.0673C21.3674 14.0267 21.6081 14.1483 21.7686 14.3103C21.9692 14.5129 22.0495 14.7559 21.9692 14.999L21.0865 21.8454C21.0464 22.2911 20.6853 22.5746 20.2841 22.5746H15.1883C14.4661 23.1418 13.463 23.1418 12.7408 22.5746H7.6852C7.28396 22.5746 6.92285 22.2505 6.88272 21.8454L6 14.999V14.7559C6.08025 14.3103 6.48149 13.9862 6.92285 14.0673C8.12656 14.2293 9.29015 14.3508 10.4939 14.3913C12.2994 14.4724 13.1822 14.2698 13.6235 14.1078C13.784 14.0267 13.9445 14.0267 14.105 14.0673C15.2285 14.3103 16.392 14.3913 17.5556 14.3103C19.4013 14.2698 21.0865 14.0673 21.0865 14.0673ZM14.747 20.9542H19.6421L20.2841 15.8092C19.6019 15.8903 18.639 15.9308 17.6359 15.9713C16.4322 16.0118 15.1883 15.9308 13.9846 15.7282C12.8612 16.0118 11.6574 16.1333 10.4939 16.0523C9.45064 16.0118 8.48767 15.9308 7.76544 15.8498L8.40742 20.9542H13.2624L13.3426 20.9947L13.4229 21.0352H13.5031L13.5834 21.0757L13.6235 21.1162L13.6636 21.1972C13.7439 21.2783 13.8643 21.3188 13.9846 21.3188C14.105 21.3188 14.2254 21.2783 14.3056 21.1972H14.3457L14.426 21.1162L14.5062 21.0757L14.5865 21.0352L14.6667 20.9947C14.7069 20.9542 14.7069 20.9542 14.747 20.9542Z" fill="#191919"/>
  </g>
  <defs>
    <clipPath id="cgdln2vu3__clip0_40_6192">
      <path fill="#fff" d="M0 0H28V28H0z"/>
    </clipPath>
  </defs>
</svg>
