<svg fill="none" xmlns="http://www.w3.org/2000/svg" viewBox="0 0 28 28" class="design-iconfont">
  <g clip-path="url(#c6a4sq5lh__clip0_41_6218)">
    <path fill-rule="evenodd" clip-rule="evenodd" d="M20.1176 9.74595V8.43243C20.1176 7.07027 19.0824 6 17.7647 6H9.29412C7.45882 6 6 7.50811 6 9.40541V20.5946C6 22.4919 7.45882 24 9.29412 24H18.7059C20.5412 24 22 22.4919 22 20.5946V12.8108C22 11.5459 21.2471 10.3297 20.1176 9.74595ZM17.5 14.3937H10.5C10.2 14.3937 10 14.6437 10 15.0187C10 15.3937 10.2 15.6437 10.5 15.6437H17.5C17.8 15.6437 18 15.3937 18 15.0187C18 14.6437 17.75 14.3937 17.5 14.3937ZM15 18.1437H10.5C10.2 18.1437 10 18.3937 10 18.7687C10 19.1437 10.2 19.3937 10.5 19.3937H15C15.3 19.3937 15.5 19.1437 15.5 18.7687C15.5 18.3937 15.25 18.1437 15 18.1437ZM17.7647 7.9946H9.29409C8.49409 7.9946 7.88232 8.62703 7.88232 9.45406V9.7946C8.30585 9.55136 8.8235 9.45406 9.29409 9.45406H18.2353V8.48108C18.2353 8.18919 18.047 7.9946 17.7647 7.9946Z" fill="url(#c6a4sq5lh__paint0_linear_41_6218)"/>
  </g>
  <defs>
    <linearGradient id="c6a4sq5lh__paint0_linear_41_6218" x1="6" y1="6" x2="25.0588" y2="10.2353" gradientUnits="userSpaceOnUse">
      <stop stop-color="#1CC6FC"/>
      <stop offset="1" stop-color="#0A59F7"/>
    </linearGradient>
    <clipPath id="c6a4sq5lh__clip0_41_6218">
      <path fill="#fff" d="M0 0H28V28H0z"/>
    </clipPath>
  </defs>
</svg>
