<svg width="28" height="28" viewBox="0 0 28 28" fill="none" xmlns="http://www.w3.org/2000/svg">
<g clip-path="url(#clip0_185_29132)">
<path d="M13.6626 20.1911C11.7082 20.2381 9.78545 19.6914 8.14814 18.6232L8.14697 27.2197C8.14697 27.7984 8.75826 28.1752 9.27623 27.915L13.6626 25.7183V20.1911Z" fill="#BCC5E2"/>
<path d="M9.08024 19.1492L8.14697 19.5575V18.6243C8.44679 18.8156 8.75826 18.9906 9.08024 19.1492Z" fill="#3F81DA"/>
<path d="M12.2193 26.4345L9.27249 27.9161C9.15387 27.9757 9.02195 28.0039 8.88933 27.998C8.75671 27.9922 8.62781 27.9524 8.51491 27.8826C8.40202 27.8127 8.30891 27.7151 8.24445 27.5991C8.18 27.483 8.14635 27.3524 8.14673 27.2196V22.3573L12.2181 26.4345H12.2193Z" fill="#D3D9ED"/>
<path d="M13.6625 20.1969V20.4057C13.2589 20.338 12.8634 20.254 12.4726 20.1514C12.8679 20.1908 13.2653 20.206 13.6625 20.1969ZM12.5158 20.1082C11.109 19.973 9.7487 19.5327 8.52954 18.818V18.37C9.75601 19.1613 11.1026 19.7487 12.5169 20.1094" fill="#3F81DA"/>
<path d="M18.8793 18.538C17.3412 19.5824 15.5329 20.1579 13.674 20.1945L13.6624 25.6938L13.6974 25.7183L18.0662 27.915C18.1948 27.9805 18.3392 28.0086 18.483 27.996C18.6267 27.9834 18.7641 27.9307 18.8793 27.8438V18.538Z" fill="#ACB9E8"/>
<path d="M19.1758 18.9637V27.2232C19.1758 27.5032 19.0358 27.7341 18.8305 27.8718L13.6194 22.6688L15.4509 19.9588L15.9362 19.2414L17.9194 19.0711L19.1758 18.9637Z" fill="#98A4D0"/>
<path d="M23.75 8.85295C23.3061 8.52057 22.9599 8.07481 22.7476 7.56247C22.5354 7.05012 22.465 6.49009 22.5438 5.94116C22.6119 5.46607 22.5684 4.98164 22.4167 4.52629C22.2651 4.07094 22.0094 3.6572 21.6699 3.31788C21.3305 2.97856 20.9167 2.723 20.4613 2.57147C20.0059 2.41993 19.5214 2.3766 19.0464 2.4449C18.4975 2.52324 17.9377 2.45248 17.4256 2.24005C16.9135 2.02761 16.468 1.68132 16.1357 1.23748C15.8479 0.853325 15.4746 0.541497 15.0453 0.32672C14.616 0.111943 14.1426 0.00012207 13.6626 0.00012207C13.1825 0.00012207 12.7091 0.111943 12.2798 0.32672C11.8506 0.541497 11.4772 0.853325 11.1894 1.23748C10.8569 1.6813 10.4112 2.02748 9.89883 2.23972C9.38651 2.45195 8.82652 2.52242 8.2776 2.44373C7.80253 2.37543 7.31809 2.41877 6.86269 2.5703C6.40729 2.72183 5.99346 2.97739 5.65403 3.31671C5.31459 3.65603 5.0589 4.06977 4.90721 4.52512C4.75553 4.98047 4.71203 5.4649 4.78017 5.93999C4.85895 6.48932 4.78829 7.04974 4.57562 7.56232C4.36295 8.07491 4.01612 8.52074 3.57159 8.85295C3.18744 9.14065 2.87562 9.51389 2.66083 9.94308C2.44605 10.3723 2.33423 10.8456 2.33423 11.3255C2.33423 11.8055 2.44605 12.2788 2.66083 12.708C2.87562 13.1372 3.18744 13.5104 3.57159 13.7981C4.0155 14.1305 4.36176 14.5763 4.574 15.0886C4.78625 15.6009 4.85665 16.161 4.77784 16.7099C4.62618 17.7587 5.01699 18.7304 5.70761 19.3872H21.6128C21.9714 19.0484 22.2431 18.6282 22.405 18.1622C22.5668 17.6962 22.614 17.198 22.5426 16.7099C22.4638 16.161 22.5342 15.6009 22.7464 15.0886C22.9587 14.5763 23.3049 14.1305 23.7489 13.7981C24.1332 13.5104 24.4453 13.1371 24.6602 12.7078C24.8751 12.2785 24.987 11.805 24.987 11.325C24.987 10.8449 24.8751 10.3714 24.6602 9.94206C24.4453 9.51276 24.1332 9.13946 23.7489 8.85179" fill="#D3D9ED"/>
<path d="M23.792 8.85182C23.3475 8.51987 23.0006 8.07426 22.788 7.56185C22.5753 7.04944 22.5046 6.48919 22.5834 5.94002C22.6513 5.46436 22.6074 4.97942 22.4552 4.52369C22.303 4.06796 22.0466 3.65399 21.7064 3.31463C21.3663 2.97527 20.9517 2.71988 20.4956 2.56871C20.0396 2.41754 19.5545 2.37476 19.079 2.44376C18.5294 2.52257 17.9687 2.45219 17.4556 2.23997C16.9425 2.02776 16.4959 1.68153 16.1625 1.23751C15.8683 0.843173 15.4838 0.5251 15.0413 0.309947C14.5989 0.0947944 14.1113 -0.0111706 13.6194 0.000931569V19.3873H21.6513C22.0107 19.0487 22.2832 18.6285 22.4454 18.1622C22.6077 17.6959 22.655 17.1973 22.5834 16.7088C22.5045 16.1597 22.575 15.5995 22.7874 15.0871C22.9999 14.5747 23.3465 14.1291 23.7908 13.797C24.1756 13.5097 24.4881 13.1366 24.7033 12.7074C24.9185 12.2781 25.0306 11.8046 25.0306 11.3244C25.0306 10.8442 24.9185 10.3707 24.7033 9.94142C24.4881 9.51217 24.1756 9.13908 23.7908 8.85182" fill="#B6C6EF"/>
<path d="M22.5437 16.7134C22.465 16.1644 22.5356 15.6043 22.748 15.092C22.9605 14.5796 23.307 14.1339 23.7511 13.8016C24.1355 13.514 24.4475 13.1407 24.6624 12.7114C24.8773 12.2821 24.9892 11.8086 24.9892 11.3285C24.9892 10.8484 24.8773 10.3749 24.6624 9.9456C24.4475 9.5163 24.1355 9.143 23.7511 8.85533C23.3072 8.52294 22.9609 8.07718 22.7487 7.56484C22.5365 7.05249 22.466 6.49246 22.5449 5.94353C22.6134 5.47596 22.5731 4.99887 22.427 4.54946C22.2809 4.10004 22.033 3.69043 21.7026 3.35254L5.68652 19.3686C6.34098 20.0044 7.27308 20.3544 8.27634 20.2109C8.82546 20.1318 9.38573 20.2021 9.8983 20.4144C10.4109 20.6266 10.8568 20.973 11.1893 21.4171C11.477 21.8015 11.8503 22.1135 12.2796 22.3284C12.7089 22.5434 13.1824 22.6553 13.6625 22.6553C14.1426 22.6553 14.6161 22.5434 15.0454 22.3284C15.4747 22.1135 15.848 21.8015 16.1356 21.4171C16.468 20.9732 16.9138 20.627 17.4261 20.4147C17.9385 20.2025 18.4985 20.1321 19.0474 20.2109C19.5226 20.2792 20.0072 20.2359 20.4627 20.0843C20.9182 19.9327 21.3321 19.677 21.6715 19.3376C22.011 18.9981 22.2667 18.5842 22.4183 18.1287C22.5699 17.6732 22.6132 17.1886 22.5449 16.7134" fill="#9EAFD9"/>
<path d="M8.14812 16.6714C7.44648 15.9741 6.89013 15.1446 6.51126 14.2309C6.1324 13.3172 5.93855 12.3374 5.94094 11.3482C5.94341 9.35214 6.73745 7.43851 8.1489 6.02706C9.56036 4.6156 11.474 3.82156 13.4701 3.81909C15.4789 3.81909 17.37 4.60304 18.7932 6.02627C19.4947 6.72337 20.051 7.55267 20.4299 8.46619C20.8087 9.3797 21.0026 10.3593 21.0004 11.3482C20.9982 13.3447 20.2042 15.2588 18.7924 16.6706C17.3807 18.0823 15.4666 18.8764 13.4701 18.8786C12.4811 18.8808 11.5015 18.6869 10.588 18.308C9.67452 17.9291 8.84522 17.3729 8.14812 16.6714Z" fill="#BED4F5"/>
<path d="M18.7955 6.02511C17.4136 4.63186 15.5384 3.83927 13.5762 3.81909V18.8786C17.6791 18.8272 21.0003 15.4698 21.0003 11.3482C21.0003 9.33938 20.2187 7.44834 18.7955 6.02511Z" fill="#B0BFE6"/>
<path d="M16.3784 15.3999V13.951H13.4176L15.5851 11.1418C15.8453 10.8059 16.0424 10.4769 16.1777 10.1584C16.3119 9.83994 16.3784 9.49113 16.3784 9.11315V8.8985C16.3784 8.47036 16.2757 8.07956 16.0704 7.72725C15.86 7.36973 15.5547 7.07741 15.1885 6.88264C14.7793 6.666 14.3215 6.55757 13.8586 6.56766C13.3383 6.56766 12.8845 6.66916 12.4983 6.87097C12.1122 7.07163 11.8159 7.34927 11.6105 7.70158C11.4006 8.0697 11.2938 8.48762 11.3014 8.91133V9.21465H12.902V9.01166C12.902 8.68502 12.9813 8.42837 13.1411 8.24405C13.3009 8.05856 13.5191 7.9664 13.7956 7.9664C14.0732 7.9664 14.2937 8.05506 14.457 8.23121C14.6203 8.40737 14.7032 8.64652 14.7032 8.94866V9.12599C14.7032 9.51096 14.5433 9.91926 14.2249 10.3474L11.3387 14.0898V15.3999H16.3784Z" fill="white"/>
</g>
<defs>
<clipPath id="clip0_185_29132">
<rect width="28" height="28" fill="white"/>
</clipPath>
</defs>
</svg>
