<svg fill="none" xmlns="http://www.w3.org/2000/svg" viewBox="0 0 28 28" class="design-iconfont">
  <g clip-path="url(#au2g695z8__clip0_40_6186)">
    <path fill-rule="evenodd" clip-rule="evenodd" d="M20.1176 8.43243V9.74595C21.2471 10.3297 22 11.5459 22 12.8108V20.5946C22 22.4919 20.5412 24 18.7059 24H9.29412C7.45882 24 6 22.4919 6 20.5946V9.40541C6 7.50811 7.45882 6 9.29412 6H17.7647C19.0824 6 20.1176 7.07027 20.1176 8.43243ZM17.7647 7.99459H9.29412C8.49412 7.99459 7.88235 8.62703 7.88235 9.45405V9.79459C8.30588 9.55135 8.82353 9.45405 9.29412 9.45405H18.2353V8.48108C18.2353 8.18919 18.0471 7.99459 17.7647 7.99459ZM18.7059 22.1027C19.5059 22.1027 20.1176 21.4703 20.1176 20.6432V12.8595C20.1176 12.0324 19.5059 11.4 18.7059 11.4H9.29412C8.49412 11.4 7.88235 12.0324 7.88235 12.8595V20.6432C7.88235 21.4703 8.49412 22.1027 9.29412 22.1027H18.7059ZM10.5 14.3937H17.5C17.75 14.3937 18 14.6437 18 15.0187C18 15.3937 17.8 15.6437 17.5 15.6437H10.5C10.2 15.6437 10 15.3937 10 15.0187C10 14.6437 10.2 14.3937 10.5 14.3937ZM10.5 18.1437H15C15.25 18.1437 15.5 18.3937 15.5 18.7687C15.5 19.1437 15.3 19.3937 15 19.3937H10.5C10.2 19.3937 10 19.1437 10 18.7687C10 18.3937 10.2 18.1437 10.5 18.1437Z" fill="#191919"/>
  </g>
  <defs>
    <clipPath id="au2g695z8__clip0_40_6186">
      <path fill="#fff" d="M0 0H28V28H0z"/>
    </clipPath>
  </defs>
</svg>
