<?xml version="1.0" standalone="no"?><!DOCTYPE svg PUBLIC "-//W3C//DTD SVG 1.1//EN" "http://www.w3.org/Graphics/SVG/1.1/DTD/svg11.dtd"><svg t="1700747981308" class="icon" viewBox="0 0 1024 1024" version="1.1" xmlns="http://www.w3.org/2000/svg" p-id="3781" xmlns:xlink="http://www.w3.org/1999/xlink" width="200" height="200"><path d="M377.6 737.4848h497.5104c26.5216 0 43.7248-28.0064 31.6416-51.6608l-187.392-367.7184c-11.52-22.6304-42.4448-26.2144-58.8288-6.7584l-310.1184 367.7184c-19.456 23.04-3.0208 58.4192 27.1872 58.4192zM912.2304 876.3904H116.8384c-20.0704 0-36.3008-16.896-36.3008-37.7856s16.2304-37.7856 36.3008-37.7856h795.392c20.0704 0 36.3008 16.896 36.3008 37.7856s-16.2816 37.7856-36.3008 37.7856z" fill="#d81e06" p-id="3782"></path><path d="M442.88 250.3168m-102.4512 0a102.4512 102.4512 0 1 0 204.9024 0 102.4512 102.4512 0 1 0-204.9024 0Z" fill="#d81e06" p-id="3783"></path><path d="M293.7856 667.9552c14.4384-15.872 75.9296-88.064 95.6928-111.3088l-45.824-89.856c-10.0352-19.712-36.9664-22.8352-51.2-5.888L102.0928 686.592c-16.9472 20.1216-2.6624 50.8928 23.6544 50.8928h161.3312c-17.408-24.6272-5.8368-55.7568 6.7072-69.5296z" fill="#d81e06" p-id="3784"></path></svg>