<?xml version="1.0" standalone="no"?><!DOCTYPE svg PUBLIC "-//W3C//DTD SVG 1.1//EN" "http://www.w3.org/Graphics/SVG/1.1/DTD/svg11.dtd"><svg t="1700793481945" class="icon" viewBox="0 0 1024 1024" version="1.1" xmlns="http://www.w3.org/2000/svg" p-id="2062" xmlns:xlink="http://www.w3.org/1999/xlink" width="200" height="200"><path d="M339.8656 381.2352H931.4816v-1.6896c0-73.8816-59.904-133.7856-133.7856-133.7856h-96.3072v-45.2096c0-54.784-44.544-99.328-99.328-99.328H425.5744c-54.784 0-99.328 44.544-99.328 99.328V245.76h-96.256c-73.8816 0-133.8368 59.904-133.8368 133.7856v1.6896h243.712z m47.872-180.736c0-20.8896 16.9984-37.888 37.888-37.888h176.384c20.8896 0 37.888 16.9984 37.888 37.888v45.2096H387.7376v-45.2096zM429.3632 538.4192h168.9088c15.4624 0 28.0576-12.5952 28.0576-28.0576V442.6752H401.3056v67.6864c0 15.4624 12.544 28.0576 28.0576 28.0576z" fill="#5097FF" p-id="2063"></path><path d="M687.7696 442.6752v67.6864c0 49.3568-40.1408 89.4976-89.4976 89.4976H429.3632c-49.3568 0-89.4976-40.1408-89.4976-89.4976V442.6752h-243.712v316.0576c0 73.8816 59.904 133.8368 133.8368 133.8368h567.6544c73.8816 0 133.7856-59.904 133.7856-133.8368V442.6752h-243.6608z" fill="#5097FF" p-id="2064"></path></svg>