<?xml version="1.0" standalone="no"?><!DOCTYPE svg PUBLIC "-//W3C//DTD SVG 1.1//EN" "http://www.w3.org/Graphics/SVG/1.1/DTD/svg11.dtd"><svg t="1700793503132" class="icon" viewBox="0 0 1024 1024" version="1.1" xmlns="http://www.w3.org/2000/svg" p-id="2549" xmlns:xlink="http://www.w3.org/1999/xlink" width="200" height="200"><path d="M523.9808 411.2896m-197.5808 0a197.5808 197.5808 0 1 0 395.1616 0 197.5808 197.5808 0 1 0-395.1616 0Z" fill="#958DFF" p-id="2550"></path><path d="M254.8224 543.5392c9.0112 0 16.2816-7.2704 16.2816-16.2816V409.1904c1.1264-138.8544 114.432-251.4432 253.5424-251.4432 131.1744 0 239.4112 100.1472 252.2624 227.9424v141.568c0 9.0112 7.2704 16.2816 16.2816 16.2816h10.5472c1.536 0 3.1232-0.2048 4.608-0.6144 35.84-10.496 62.0544-43.5712 62.0544-82.7904 0-26.7776-12.1856-50.688-31.2832-66.5088-9.216-165.4784-146.7392-297.2672-314.4704-297.2672-167.424 0-304.6912 131.2768-314.4192 296.2432-19.8656 15.8208-32.6144 40.192-32.6144 67.5328 0 39.2704 26.2144 72.2944 62.0544 82.7904 1.4848 0.4608 3.0208 0.6144 4.608 0.6144h10.5472zM877.2608 867.6864c-17.664-114.688-90.7776-211.0464-191.1296-260.9152-44.3392 35.7376-100.7104 57.1904-162.1504 57.1904-61.3888 0-117.76-21.4528-162.1504-57.1904-100.3008 49.8688-173.4656 146.2272-191.1296 260.9152C166.4 896 188.1088 921.6 216.7296 921.6h614.5536c28.6208 0 50.3296-25.6 45.9776-53.9136z m-231.1168-22.4256H401.8688c-16.9472 0-30.72-13.7728-30.72-30.72s13.7728-30.72 30.72-30.72h244.2752c16.9472 0 30.72 13.7728 30.72 30.72s-13.7728 30.72-30.72 30.72z" fill="#958DFF" p-id="2551"></path></svg>