<?xml version="1.0" standalone="no"?><!DOCTYPE svg PUBLIC "-//W3C//DTD SVG 1.1//EN" "http://www.w3.org/Graphics/SVG/1.1/DTD/svg11.dtd"><svg t="1700793449689" class="icon" viewBox="0 0 1024 1024" version="1.1" xmlns="http://www.w3.org/2000/svg" p-id="1738" xmlns:xlink="http://www.w3.org/1999/xlink" width="200" height="200"><path d="M681.7792 924.9792h22.8864c66.56 0 132.096-75.1616 132.096-141.7216v-33.8944l-154.9824 175.616zM657.5104 91.9552H321.28c-99.0208 0-179.3024 80.2816-179.3024 179.3024v474.4192c0 99.0208 80.2816 179.3024 179.3024 179.3024h120.0128V781.312c0-9.8304 3.7376-19.3024 10.4448-26.5216l314.112-335.6672c15.0528-16.0768 40.3968-16.4352 55.8592-0.8192l15.0016 15.1552V271.2576c0.1024-99.0208-80.1792-179.3024-179.2-179.3024zM462.08 640.5632H327.0656c-17.664 0-32-14.336-32-32s14.336-32 32-32h135.0656c17.664 0 32 14.336 32 32-0.0512 17.664-14.3872 32-32.0512 32z m97.7408-166.4512H327.0656c-17.664 0-32-14.336-32-32s14.336-32 32-32h232.8064c17.664 0 32 14.336 32 32s-14.3872 32-32.0512 32z m91.8528-168.8064h-324.608c-17.664 0-32-14.336-32-32s14.336-32 32-32h324.6592c17.664 0 32 14.336 32 32s-14.336 32-32.0512 32z" fill="#5097FF" p-id="1739"></path><path d="M707.6864 562.6368l-202.5984 219.4432c-3.84 4.1472-5.9392 9.6256-5.8368 15.3088l1.9968 110.08a12.53376 12.53376 0 0 0 14.5408 12.1344l99.2768-16.0768c4.864-0.768 9.3184-3.1744 12.6464-6.8096l205.4144-222.464-125.44-111.616zM898.9696 570.368L807.8336 486.4a21.95968 21.95968 0 0 0-31.0784 1.28l-29.0816 31.5904 125.4912 111.616 27.136-29.44a22.10304 22.10304 0 0 0-1.3312-31.0784z" fill="#5097FF" p-id="1740"></path></svg>