<?xml version="1.0" standalone="no"?><!DOCTYPE svg PUBLIC "-//W3C//DTD SVG 1.1//EN" "http://www.w3.org/Graphics/SVG/1.1/DTD/svg11.dtd"><svg t="1700793411882" class="icon" viewBox="0 0 1024 1024" version="1.1" xmlns="http://www.w3.org/2000/svg" p-id="1576" xmlns:xlink="http://www.w3.org/1999/xlink" width="200" height="200"><path d="M307.1488 119.0912c-102.0928 0-185.1392 83.0464-185.1392 185.1392 0 102.0928 83.0464 185.1392 185.1392 185.1392h131.4816c29.5936 0 53.6576-24.064 53.6576-53.6064V304.2304c0-102.0928-83.0464-185.1392-185.1392-185.1392zM438.6816 536.2688H307.1488c-102.0928 0-185.1392 83.0464-185.1392 185.1392 0 102.0928 83.0464 185.1392 185.1392 185.1392 102.0928 0 185.1392-83.0464 185.1392-185.1392v-131.4816c0-29.5936-24.064-53.6576-53.6064-53.6576zM725.0432 536.2688h-131.4816c-29.5936 0-53.6576 24.064-53.6576 53.6064v131.4816c0 102.0928 83.0464 185.1392 185.1392 185.1392 102.0928 0 185.1392-83.0464 185.1392-185.1392 0-102.0416-83.0464-185.088-185.1392-185.088zM593.5616 489.3696h131.4816c102.0928 0 185.1392-83.0464 185.1392-185.1392 0-102.0928-83.0464-185.1392-185.1392-185.1392-102.0928 0-185.1392 83.0464-185.1392 185.1392V435.712c0 29.5936 24.064 53.6576 53.6576 53.6576z" fill="#42E59B" p-id="1577"></path></svg>