<?xml version="1.0" standalone="no"?><!DOCTYPE svg PUBLIC "-//W3C//DTD SVG 1.1//EN" "http://www.w3.org/Graphics/SVG/1.1/DTD/svg11.dtd"><svg t="1700747857902" class="icon" viewBox="0 0 1024 1024" version="1.1" xmlns="http://www.w3.org/2000/svg" p-id="2846" xmlns:xlink="http://www.w3.org/1999/xlink" width="200" height="200"><path d="M273.5104 335.1552H164.7616a29.95712 29.95712 0 0 1 0-59.904h108.7488a29.95712 29.95712 0 0 1 0 59.904zM273.5104 519.936H164.7616a29.95712 29.95712 0 0 1 0-59.904h108.7488a29.95712 29.95712 0 0 1 0 59.904zM273.5104 702.1568H164.7616a29.95712 29.95712 0 0 1 0-59.904h108.7488a29.95712 29.95712 0 0 1 0 59.904z" fill="#d81e06" p-id="2847"></path><path d="M716.2368 99.2768H358.4c-82.0736 0-151.1424 56.7808-169.9328 133.1712h81.5104c40.704 0 73.6768 32.9728 73.6768 73.6768s-32.9728 73.6768-73.6768 73.6768H183.3472v36.5568h86.5792c40.704 0 73.6768 32.9728 73.6768 73.6768s-32.9728 73.6768-73.6768 73.6768H183.3472v35.84h86.5792c40.704 0 73.6768 32.9728 73.6768 73.6768s-32.9728 73.6768-73.6768 73.6768H185.344c12.8 84.0192 85.504 148.5824 173.056 148.5824h357.8368c96.512 0 175.0528-78.5408 175.0528-175.0528v-445.952c0-96.6656-78.5408-175.2064-175.0528-175.2064z m-15.5136 577.7408c-16.5376 0-29.952-13.4144-29.952-29.952 0-55.6032-42.9056-101.2736-97.3312-105.8304-2.9696 0.2048-5.9392 0.3584-8.9088 0.3584-3.0208 0-5.9904-0.1536-8.9088-0.3584-54.4256 4.5568-97.3312 50.2272-97.3312 105.8304a29.95712 29.95712 0 0 1-59.904 0c0-59.6992 31.6416-112.0768 79.0016-141.4144-22.6816-22.4768-36.7616-53.6064-36.7616-87.9616 0-68.3008 55.6032-123.904 123.904-123.904s123.904 55.6032 123.904 123.904c0 34.3552-14.08 65.536-36.7616 87.9616 47.36 29.2864 79.0016 81.7152 79.0016 141.4144 0 16.5376-13.4144 29.952-29.952 29.952z" fill="#d81e06" p-id="2848"></path><path d="M572.7744 481.1264c31.3856-4.096 55.7568-30.9248 55.7568-63.4368 0-35.328-28.7232-64-64-64-35.328 0-64 28.7232-64 64 0 32.512 24.32 59.3408 55.7568 63.4368 2.7648-0.1536 5.5296-0.2048 8.2944-0.2048s5.4784 0.0512 8.192 0.2048z" fill="#d81e06" p-id="2849"></path></svg>