<?xml version="1.0" standalone="no"?><!DOCTYPE svg PUBLIC "-//W3C//DTD SVG 1.1//EN" "http://www.w3.org/Graphics/SVG/1.1/DTD/svg11.dtd"><svg t="1700747884942" class="icon" viewBox="0 0 1024 1024" version="1.1" xmlns="http://www.w3.org/2000/svg" p-id="3098" xmlns:xlink="http://www.w3.org/1999/xlink" width="200" height="200"><path d="M492.1344 125.184L291.328 305.664c-4.1472 3.7376-9.5232 5.7856-15.0528 5.7856H133.888c-38.4512 0-69.632 31.1808-69.632 69.632v266.7008c0 38.4512 31.1808 69.632 69.632 69.632h137.2672c5.4272 0 10.6496 1.9456 14.6944 5.4784L492.8 901.12c28.5696 24.576 72.8064 4.3008 72.8064-33.3824V157.952c0-38.0928-45.1584-58.2144-73.472-32.768zM667.392 720.0768c-10.9568 0-21.76-5.0176-28.8256-14.4896-11.776-15.872-8.4992-38.3488 7.424-50.1248 45.9264-34.0992 72.2432-86.3744 72.2432-143.4624 0-56.0128-25.5488-107.7248-70.0928-141.824-15.7184-12.032-18.688-34.56-6.656-50.2272 12.032-15.7184 34.56-18.688 50.2272-6.656 62.3616 47.8208 98.1504 120.2176 98.1504 198.7072 0 78.848-37.8368 153.9584-101.1712 201.0112a35.56864 35.56864 0 0 1-21.2992 7.0656z" fill="#d81e06" p-id="3099"></path><path d="M783.7696 834.4576c-10.1376 0-20.224-4.2496-27.2896-12.5952a35.80928 35.80928 0 0 1 4.0448-50.5344c76.1344-64.9216 119.808-159.4368 119.808-259.3792 0-99.9936-43.7248-194.56-119.9104-259.4304a35.85024 35.85024 0 0 1 46.4896-54.5792c92.2112 78.5408 145.1008 192.9728 145.1008 314.0096 0 120.9344-52.8384 235.3664-144.9472 313.9072a35.79904 35.79904 0 0 1-23.296 8.6016z" fill="#d81e06" p-id="3100"></path></svg>