<?xml version="1.0" standalone="no"?><!DOCTYPE svg PUBLIC "-//W3C//DTD SVG 1.1//EN" "http://www.w3.org/Graphics/SVG/1.1/DTD/svg11.dtd"><svg t="1700793526605" class="icon" viewBox="0 0 1024 1024" version="1.1" xmlns="http://www.w3.org/2000/svg" p-id="2872" xmlns:xlink="http://www.w3.org/1999/xlink" width="200" height="200"><path d="M695.296 118.2208H325.0176c-111.9232 0-202.5984 90.7264-202.5984 202.5984v370.2784c0 111.9232 90.7264 202.5984 202.5984 202.5984h370.2784c111.9232 0 202.5984-90.7264 202.5984-202.5984V320.8704c0.0512-111.9232-90.6752-202.6496-202.5984-202.6496z m-434.7904 219.648c0-44.9536 36.5568-81.5616 81.5616-81.5616h82.5344c16.9472 0 30.72 13.7728 30.72 30.72s-13.7728 30.72-30.72 30.72H342.016a20.1216 20.1216 0 0 0-20.1216 20.1216v72.192c0 16.9472-13.7728 30.72-30.72 30.72s-30.72-13.7728-30.72-30.72v-72.192z m166.9632 417.792H342.016c-44.9536 0-81.5616-36.5568-81.5616-81.5616v-74.3936c0-16.9472 13.7728-30.72 30.72-30.72s30.72 13.7728 30.72 30.72v74.3936a20.1216 20.1216 0 0 0 20.1216 20.1216h85.4528c16.9472 0 30.72 13.7728 30.72 30.72s-13.7728 30.72-30.72 30.72z m332.3904-81.5104c0 44.9536-36.5568 81.5616-81.5616 81.5616H587.264c-16.9472 0-30.72-13.7728-30.72-30.72s13.7728-30.72 30.72-30.72h91.0848a20.1216 20.1216 0 0 0 20.1216-20.1216v-74.3936c0-16.9472 13.7728-30.72 30.72-30.72s30.72 13.7728 30.72 30.72v74.3936z m-30.72-138.5472H291.2256c-16.9472 0-30.72-13.7728-30.72-30.72s13.7728-30.72 30.72-30.72h437.9136c16.9472 0 30.72 13.7728 30.72 30.72s-13.7728 30.72-30.72 30.72z m30.72-125.5936c0 16.9472-13.7728 30.72-30.72 30.72s-30.72-13.7728-30.72-30.72v-72.192a20.1216 20.1216 0 0 0-20.1216-20.1216H587.264c-16.9472 0-30.72-13.7728-30.72-30.72s13.7728-30.72 30.72-30.72h91.0848c44.9536 0 81.5616 36.5568 81.5616 81.5616v72.192z" fill="#5097FF" p-id="2873"></path></svg>