<?xml version="1.0" standalone="no"?><!DOCTYPE svg PUBLIC "-//W3C//DTD SVG 1.1//EN" "http://www.w3.org/Graphics/SVG/1.1/DTD/svg11.dtd"><svg t="1700747826438" class="icon" viewBox="0 0 1024 1024" version="1.1" xmlns="http://www.w3.org/2000/svg" p-id="2646" xmlns:xlink="http://www.w3.org/1999/xlink" width="200" height="200"><path d="M700.928 123.3408H330.5984C218.7264 123.3408 128 214.0672 128 325.9392v370.2784c0 111.9232 90.7264 202.5984 202.5984 202.5984h370.2784c111.9232 0 202.5984-90.7264 202.5984-202.5984V325.9392c0.0512-111.872-90.6752-202.5984-202.5472-202.5984z m-72.9088 423.2192l-104.704 164.3008a30.73536 30.73536 0 0 1-42.4448 9.4208c-14.2848-9.1136-18.5344-28.1088-9.3696-42.3936l82.7904-129.9456H437.4016c-14.6944 0-28.0064-8.0896-34.7136-21.1456a38.88128 38.88128 0 0 1 2.8672-40.5504l123.904-174.3872c9.8304-13.824 28.9792-17.0496 42.8544-7.2704a30.7968 30.7968 0 0 1 7.2704 42.8544L480.768 486.5024h114.3808a39.0656 39.0656 0 0 1 34.2528 20.2752 39.15264 39.15264 0 0 1-1.3824 39.7824z" fill="#515151" p-id="2647"></path></svg>