<?xml version="1.0" standalone="no"?><!DOCTYPE svg PUBLIC "-//W3C//DTD SVG 1.1//EN" "http://www.w3.org/Graphics/SVG/1.1/DTD/svg11.dtd"><svg t="1700793516307" class="icon" viewBox="0 0 1024 1024" version="1.1" xmlns="http://www.w3.org/2000/svg" p-id="2710" xmlns:xlink="http://www.w3.org/1999/xlink" width="200" height="200"><path d="M815.2064 150.272H221.3376c-68.6592 0-124.3136 55.6544-124.3136 124.3136v395.9296c0 68.6592 55.6544 124.3136 124.3136 124.3136h194.816l68.7104 73.3696c20.0704 21.4016 54.1184 21.0944 73.7792-0.7168l65.4848-72.6528h191.1296c68.6592 0 124.3136-55.6544 124.3136-124.3136V274.5344c-0.0512-68.608-55.7056-124.2624-124.3648-124.2624zM287.5392 524.6976c-32.5632 0-58.9312-26.368-58.9312-58.9312 0-32.5632 26.368-58.9312 58.9312-58.9312s58.9312 26.368 58.9312 58.9312c0 32.512-26.4192 58.9312-58.9312 58.9312z m234.752 0c-32.5632 0-58.9312-26.368-58.9312-58.9312 0-32.5632 26.368-58.9312 58.9312-58.9312 32.5632 0 58.9312 26.368 58.9312 58.9312 0 32.512-26.368 58.9312-58.9312 58.9312z m234.8032 0c-32.5632 0-58.9312-26.368-58.9312-58.9312 0-32.5632 26.368-58.9312 58.9312-58.9312 32.5632 0 58.9312 26.368 58.9312 58.9312 0 32.512-26.368 58.9312-58.9312 58.9312z" fill="#FF5A3E" p-id="2711"></path></svg>