<?xml version="1.0" standalone="no"?><!DOCTYPE svg PUBLIC "-//W3C//DTD SVG 1.1//EN" "http://www.w3.org/Graphics/SVG/1.1/DTD/svg11.dtd"><svg t="1700793536049" class="icon" viewBox="0 0 1024 1024" version="1.1" xmlns="http://www.w3.org/2000/svg" p-id="3032" xmlns:xlink="http://www.w3.org/1999/xlink" width="200" height="200"><path d="M785.152 162.304H235.1616c-75.3152 0-136.3456 61.0304-136.3456 136.3456v414.6176c0 75.3152 61.0304 136.3456 136.3456 136.3456h549.9904c75.3152 0 136.3456-61.0304 136.3456-136.3456V298.7008c0-75.3152-61.0304-136.3968-136.3456-136.3968zM480.3584 708.5568H208.1792c-16.9472 0-30.72-13.7728-30.72-30.72s13.7728-30.72 30.72-30.72h272.1792c16.9472 0 30.72 13.7728 30.72 30.72s-13.7216 30.72-30.72 30.72z m-302.8992-180.48c0-16.9472 13.7728-30.72 30.72-30.72h143.7184c16.9472 0 30.72 13.7728 30.72 30.72s-13.7728 30.72-30.72 30.72H208.1792c-16.9472 0-30.72-13.7216-30.72-30.72z m623.0528 87.04h-60.928v60.928c0 16.9472-13.7728 30.72-30.72 30.72s-30.72-13.7728-30.72-30.72v-60.928h-60.928c-16.9472 0-30.72-13.7728-30.72-30.72s13.7728-30.72 30.72-30.72h60.928v-60.928c0-16.9472 13.7728-30.72 30.72-30.72s30.72 13.7728 30.72 30.72v60.928h60.928c16.9472 0 30.72 13.7728 30.72 30.72s-13.7216 30.72-30.72 30.72z m11.6224-240.9984H208.1792c-16.9472 0-30.72-13.7728-30.72-30.72s13.7728-30.72 30.72-30.72h603.9552c16.9472 0 30.72 13.7728 30.72 30.72 0 16.9984-13.7728 30.72-30.72 30.72z" fill="#42E59B" p-id="3033"></path></svg>