<?xml version="1.0" standalone="no"?><!DOCTYPE svg PUBLIC "-//W3C//DTD SVG 1.1//EN" "http://www.w3.org/Graphics/SVG/1.1/DTD/svg11.dtd"><svg t="1700793545419" class="icon" viewBox="0 0 1024 1024" version="1.1" xmlns="http://www.w3.org/2000/svg" p-id="3194" xmlns:xlink="http://www.w3.org/1999/xlink" width="200" height="200"><path d="M306.6368 237.056c16.9472 0 30.72-13.7728 30.72-30.72V112.896c0-16.9472-13.7728-30.72-30.72-30.72s-30.72 13.7728-30.72 30.72V206.336c0 16.9984 13.7728 30.72 30.72 30.72zM648.704 237.056c16.9472 0 30.72-13.7728 30.72-30.72V112.896c0-16.9472-13.7728-30.72-30.72-30.72s-30.72 13.7728-30.72 30.72V206.336c0 16.9984 13.7728 30.72 30.72 30.72z" fill="#FF5757" p-id="3195"></path><path d="M827.392 295.7312c0-60.0064-36.8128-111.4112-89.1392-132.864v43.4688c0 49.5104-40.0896 89.6-89.6 89.6s-89.6-40.0896-89.6-89.6V152.1664h-162.816V206.336c0 49.5104-40.0896 89.6-89.6 89.6s-89.6-40.0896-89.6-89.6V154.5728c-66.816 12.288-117.4528 70.8096-117.4528 141.2096v56.6272H827.392V295.7312zM515.0208 699.2896c0-126.8224 102.8096-229.6832 229.6832-229.6832 29.184 0 57.0368 5.4784 82.688 15.4112v-71.168H99.584v322.5088c0 79.3088 64.3072 143.616 143.616 143.616h359.7824c-53.504-42.0352-87.9616-107.3152-87.9616-180.6848zM384 736.256H243.0976c-16.9472 0-30.72-13.7728-30.72-30.72s13.7728-30.72 30.72-30.72H384c16.9472 0 30.72 13.7728 30.72 30.72s-13.7216 30.72-30.72 30.72z m0-164.9664H243.0976c-16.9472 0-30.72-13.7728-30.72-30.72s13.7728-30.72 30.72-30.72H384c16.9472 0 30.72 13.7728 30.72 30.72s-13.7216 30.72-30.72 30.72z" fill="#FF5757" p-id="3196"></path><path d="M744.704 531.4048c-92.7232 0-167.936 75.1616-167.936 167.936 0 92.7232 75.1616 167.936 167.936 167.936s167.936-75.1616 167.936-167.936c0-92.7744-75.2128-167.936-167.936-167.936z m75.4176 204.8h-84.4288c-16.9472 0-30.72-13.7728-30.72-30.72v-79.36c0-16.9472 13.7728-30.72 30.72-30.72s30.72 13.7728 30.72 30.72v48.64h53.7088c16.9472 0 30.72 13.7728 30.72 30.72s-13.7728 30.72-30.72 30.72z" fill="#FF5757" p-id="3197"></path></svg>